<svg width="715" height="257" viewBox="0 0 715 257" fill="none" xmlns="http://www.w3.org/2000/svg">
<rect width="715" height="257" fill="white"/>
<path d="M264.42 173C262.3 173 261.24 171.94 261.24 169.82V111.02C261.24 103.66 262.94 98.28 266.34 94.88C269.78 91.48 275.18 89.78 282.54 89.78C284.58 89.78 285.6 90.82 285.6 92.9C285.6 95.02 284.58 96.08 282.54 96.08C276.98 96.08 273.08 97.18 270.84 99.38C268.64 101.54 267.54 105.42 267.54 111.02V169.82C267.54 171.94 266.5 173 264.42 173ZM256.2 122.6C254.08 122.6 253.02 121.54 253.02 119.42C253.02 117.34 254.08 116.3 256.2 116.3H297.3C299.42 116.3 300.48 117.34 300.48 119.42C300.48 120.46 300.2 121.26 299.64 121.82C299.12 122.34 298.34 122.6 297.3 122.6H256.2ZM300.3 173C298.18 173 297.12 171.94 297.12 169.82V122.6H292.08C289.96 122.6 288.9 121.54 288.9 119.42C288.9 117.34 289.96 116.3 292.08 116.3H297.12V111.02C297.12 103.66 298.82 98.28 302.22 94.88C305.66 91.48 311.06 89.78 318.42 89.78C320.46 89.78 321.48 90.82 321.48 92.9C321.48 95.02 320.46 96.08 318.42 96.08C312.82 96.08 308.92 97.18 306.72 99.38C304.52 101.54 303.42 105.42 303.42 111.02V116.3H318.3C320.42 116.3 321.48 117.34 321.48 119.42C321.48 121.54 320.42 122.6 318.3 122.6H303.42V169.82C303.42 171.94 302.38 173 300.3 173ZM341.179 173C333.699 173 328.219 171.26 324.739 167.78C321.259 164.3 319.519 158.82 319.519 151.34V137.78C319.519 130.3 321.239 124.84 324.679 121.4C328.159 117.92 333.659 116.22 341.179 116.3H351.019C356.899 116.3 361.379 117.3 364.459 119.3C367.579 121.26 369.439 124.36 370.039 128.6C370.159 129.68 369.919 130.5 369.319 131.06C368.759 131.62 367.959 131.9 366.919 131.9C365.959 131.9 365.239 131.66 364.759 131.18C364.279 130.66 363.919 129.92 363.679 128.96C363.239 126.64 362.059 125 360.139 124.04C358.219 123.08 355.179 122.6 351.019 122.6H341.179C335.459 122.52 331.459 123.6 329.179 125.84C326.939 128.04 325.819 132.02 325.819 137.78V151.34C325.819 157.06 326.939 161.06 329.179 163.34C331.459 165.58 335.459 166.7 341.179 166.7H351.019C355.179 166.7 358.219 166.22 360.139 165.26C362.059 164.3 363.239 162.64 363.679 160.28C363.919 159.32 364.279 158.6 364.759 158.12C365.239 157.6 365.959 157.34 366.919 157.34C367.959 157.34 368.759 157.64 369.319 158.24C369.919 158.8 370.159 159.6 370.039 160.64C369.439 164.88 367.579 168 364.459 170C361.379 172 356.899 173 351.019 173H341.179ZM383.573 147.08V151.46C383.573 157.1 384.693 161.06 386.933 163.34C389.213 165.58 393.213 166.7 398.933 166.7H408.773C413.813 166.7 417.473 166.06 419.753 164.78C422.073 163.46 423.453 161.2 423.893 158C424.053 157 424.373 156.24 424.853 155.72C425.373 155.2 426.153 154.94 427.193 154.94C428.233 154.94 429.013 155.24 429.533 155.84C430.093 156.4 430.313 157.2 430.193 158.24C429.673 163.28 427.653 167 424.133 169.4C420.613 171.8 415.493 173 408.773 173H398.933C391.453 173 385.973 171.28 382.493 167.84C379.013 164.36 377.273 158.9 377.273 151.46V137.9C377.273 130.34 379.013 124.84 382.493 121.4C385.973 117.92 391.453 116.22 398.933 116.3H408.773C416.253 116.3 421.713 118.04 425.153 121.52C428.633 124.96 430.373 130.42 430.373 137.9V143.9C430.373 146.02 429.333 147.08 427.253 147.08H383.573ZM398.933 122.6C393.213 122.52 389.213 123.62 386.933 125.9C384.693 128.14 383.573 132.14 383.573 137.9V140.78H424.073V137.9C424.073 132.18 422.953 128.2 420.713 125.96C418.473 123.72 414.493 122.6 408.773 122.6H398.933ZM443.578 173C441.458 173 440.398 171.94 440.398 169.82V119.42C440.398 117.34 441.458 116.3 443.578 116.3C445.658 116.3 446.698 117.34 446.698 119.42V125.18C450.498 119.26 457.378 116.3 467.338 116.3H470.698C478.178 116.3 483.638 118.04 487.078 121.52C490.558 124.96 492.298 130.42 492.298 137.9V169.82C492.298 171.94 491.258 173 489.178 173C487.058 173 485.998 171.94 485.998 169.82V137.9C485.998 132.18 484.858 128.2 482.578 125.96C480.338 123.72 476.378 122.6 470.698 122.6H467.338C461.138 122.6 456.258 123.58 452.698 125.54C449.138 127.5 447.138 130.56 446.698 134.72V169.82C446.698 171.94 445.658 173 443.578 173ZM515.26 172.88C510.34 172.88 506.58 171.84 503.98 169.76C501.38 167.64 499.82 164.42 499.3 160.1C499.18 159.06 499.4 158.26 499.96 157.7C500.52 157.1 501.34 156.8 502.42 156.8C503.42 156.8 504.16 157.06 504.64 157.58C505.16 158.1 505.5 158.88 505.66 159.92C506.02 162.4 506.92 164.14 508.36 165.14C509.84 166.1 512.14 166.58 515.26 166.58H534.94C538.66 166.58 541.22 165.88 542.62 164.48C544.02 163.08 544.72 160.52 544.72 156.8C544.72 153.04 544.02 150.46 542.62 149.06C541.22 147.66 538.66 146.96 534.94 146.96H515.5C510.3 146.96 506.42 145.72 503.86 143.24C501.34 140.72 500.08 136.86 500.08 131.66C500.08 126.34 501.34 122.44 503.86 119.96C506.38 117.44 510.26 116.18 515.5 116.18H534.34C543.38 116.18 548.4 120.18 549.4 128.18C549.56 129.22 549.34 130.04 548.74 130.64C548.18 131.2 547.38 131.48 546.34 131.48C545.34 131.48 544.58 131.22 544.06 130.7C543.58 130.18 543.24 129.42 543.04 128.42C542.76 126.18 541.94 124.64 540.58 123.8C539.26 122.92 537.18 122.48 534.34 122.48H515.5C512.02 122.48 509.62 123.12 508.3 124.4C507.02 125.68 506.38 128.1 506.38 131.66C506.38 135.06 507.04 137.42 508.36 138.74C509.68 140.02 512.06 140.66 515.5 140.66H534.94C540.46 140.66 544.52 141.98 547.12 144.62C549.72 147.22 551.02 151.28 551.02 156.8C551.02 162.28 549.72 166.34 547.12 168.98C544.52 171.58 540.46 172.88 534.94 172.88H515.26ZM579.112 173C571.632 173 566.152 171.28 562.672 167.84C559.192 164.36 557.452 158.9 557.452 151.46V137.9C557.452 130.34 559.192 124.84 562.672 121.4C566.152 117.92 571.632 116.22 579.112 116.3H588.952C596.432 116.3 601.892 118.04 605.332 121.52C608.812 124.96 610.552 130.42 610.552 137.9V151.34C610.552 158.82 608.812 164.3 605.332 167.78C601.892 171.26 596.432 173 588.952 173H579.112ZM563.752 151.46C563.752 157.1 564.872 161.06 567.112 163.34C569.392 165.58 573.392 166.7 579.112 166.7H588.952C594.672 166.7 598.652 165.58 600.892 163.34C603.132 161.06 604.252 157.06 604.252 151.34V137.9C604.252 132.18 603.132 128.2 600.892 125.96C598.652 123.72 594.672 122.6 588.952 122.6H579.112C575.272 122.56 572.232 123.02 569.992 123.98C567.752 124.94 566.152 126.54 565.192 128.78C564.232 131.02 563.752 134.06 563.752 137.9V151.46ZM623.756 173C621.636 173 620.576 171.94 620.576 169.82V119.42C620.576 117.34 621.636 116.3 623.756 116.3C625.836 116.3 626.876 117.34 626.876 119.42V128.66C628.956 124.66 631.956 121.6 635.876 119.48C639.836 117.36 644.516 116.3 649.916 116.3C652.036 116.3 653.096 117.34 653.096 119.42C653.096 121.54 652.036 122.6 649.916 122.6C642.796 122.6 637.276 124.22 633.356 127.46C629.436 130.66 627.276 135.24 626.876 141.2V169.82C626.876 171.94 625.836 173 623.756 173Z" fill="black"/>
</svg>
